<svg width="120" height="121" viewBox="0 0 120 121" fill="none" xmlns="http://www.w3.org/2000/svg">
<rect y="0.692383" width="120" height="120" fill="#E01935"/>
<path d="M107.159 88.7193V79.114H87.9705C81.0332 79.114 73.3377 72.1862 71.4366 68.8844C65.673 79.6903 58.2284 79.114 53.7256 79.114C38.1159 79.5943 33.8133 67.1073 33.6131 60.8039C34.0934 44.9551 46.4211 41.193 52.5249 41.2931C67.1739 41.2931 71.2364 53.4998 71.4366 59.6032H81.3263C79.8855 37.511 62.5311 31.9879 53.7256 31.9879C31.3918 32.7083 23.9908 50.5982 24.291 60.8039C26.1971 83.6165 44.1033 89.3196 53.7256 89.3196C61.5141 89.6198 68.4347 84.517 71.4366 81.8155C76.8399 86.9183 85.4452 88.6192 89.7479 88.7193H107.159Z" fill="#FAFAFA"/>
<path d="M107.159 103.385V93.7802H87.3301C79.0205 93.1866 72.9943 89.0981 71.4366 87.8511C67.5341 91.7533 63.3152 93.9075 55.5103 94.3805C33.6131 95.7075 19.4803 78.5137 19.4803 60.1615C19.4803 36.7283 42.3022 25.9276 54.6098 26.543C78.6247 27.7436 86.4218 49.3352 86.722 59.6031L96.6281 59.6032C93.9265 25.6841 66.3172 17.0547 51.3079 17.538C18.8878 20.8394 10.4826 46.9539 10.7826 60.1615C11.0829 94.0799 38.0997 105.186 55.5103 103.385C59.7129 102.951 65.7168 102.617 71.4366 97.8142C76.2155 102.317 85.1303 103.23 91.8329 103.385H107.159Z" fill="#FAFAFA"/>
<path d="M107.159 88.7193V79.114H87.9705C81.0332 79.114 73.3377 72.1862 71.4366 68.8844C65.673 79.6903 58.2284 79.114 53.7256 79.114C38.1159 79.5943 33.8133 67.1073 33.6131 60.8039C34.0934 44.9551 46.4211 41.193 52.5249 41.2931C67.1739 41.2931 71.2364 53.4998 71.4366 59.6032H81.3263C79.8855 37.511 62.5311 31.9879 53.7256 31.9879C31.3918 32.7083 23.9908 50.5982 24.291 60.8039C26.1971 83.6165 44.1033 89.3196 53.7256 89.3196C61.5141 89.6198 68.4347 84.517 71.4366 81.8155C76.8399 86.9183 85.4452 88.6192 89.7479 88.7193H107.159Z" stroke="#FAFAFA" stroke-width="0.616236"/>
<path d="M107.159 103.385V93.7802H87.3301C79.0205 93.1866 72.9943 89.0981 71.4366 87.8511C67.5341 91.7533 63.3152 93.9075 55.5103 94.3805C33.6131 95.7075 19.4803 78.5137 19.4803 60.1615C19.4803 36.7283 42.3022 25.9276 54.6098 26.543C78.6247 27.7436 86.4218 49.3352 86.722 59.6031L96.6281 59.6032C93.9265 25.6841 66.3172 17.0547 51.3079 17.538C18.8878 20.8394 10.4826 46.9539 10.7826 60.1615C11.0829 94.0799 38.0997 105.186 55.5103 103.385C59.7129 102.951 65.7168 102.617 71.4366 97.8142C76.2155 102.317 85.1303 103.23 91.8329 103.385H107.159Z" stroke="#FAFAFA" stroke-width="0.616236"/>
</svg>
