<svg width="120" height="120" viewBox="0 0 120 120" fill="none" xmlns="http://www.w3.org/2000/svg">
<rect width="120" height="120" fill="#A38FFD"/>
<path d="M107.159 88.0268V78.4215H87.9705C81.0332 78.4215 73.3377 71.4937 71.4365 68.1919C65.673 78.9979 58.2284 78.4215 53.7256 78.4215C38.1159 78.9018 33.8133 66.4149 33.6131 60.1114C34.0934 44.2626 46.4211 40.5005 52.5249 40.6006C67.1739 40.6006 71.2364 52.8073 71.4365 58.9107H81.3263C79.8855 36.8185 62.5311 31.2955 53.7256 31.2955C31.3918 32.0159 23.9908 49.9057 24.291 60.1114C26.1971 82.924 44.1033 88.6272 53.7256 88.6272C61.5141 88.9273 68.4347 83.8245 71.4365 81.123C76.8399 86.2258 85.4452 87.9268 89.7479 88.0268H107.159Z" fill="#FAFAFA"/>
<path d="M107.159 102.693V93.0877H87.3301C79.0205 92.4942 72.9943 88.4056 71.4365 87.1587C67.5341 91.0608 63.3152 93.215 55.5103 93.688C33.6131 95.015 19.4803 77.8212 19.4803 59.4691C19.4803 36.0358 42.3022 25.2351 54.6098 25.8505C78.6247 27.0511 86.4218 48.6427 86.722 58.9107L96.6281 58.9107C93.9265 24.9916 66.3172 16.3623 51.3079 16.8455C18.8878 20.147 10.4826 46.2614 10.7826 59.4691C11.0829 93.3875 38.0997 104.494 55.5103 102.693C59.7129 102.258 65.7168 101.924 71.4365 97.1218C76.2155 101.624 85.1303 102.537 91.8329 102.693H107.159Z" fill="#FAFAFA"/>
<path d="M107.159 88.0268V78.4215H87.9705C81.0332 78.4215 73.3377 71.4937 71.4365 68.1919C65.673 78.9979 58.2284 78.4215 53.7256 78.4215C38.1159 78.9018 33.8133 66.4149 33.6131 60.1114C34.0934 44.2626 46.4211 40.5005 52.5249 40.6006C67.1739 40.6006 71.2364 52.8073 71.4365 58.9107H81.3263C79.8855 36.8185 62.5311 31.2955 53.7256 31.2955C31.3918 32.0159 23.9908 49.9057 24.291 60.1114C26.1971 82.924 44.1033 88.6272 53.7256 88.6272C61.5141 88.9273 68.4347 83.8245 71.4365 81.123C76.8399 86.2258 85.4452 87.9268 89.7479 88.0268H107.159Z" stroke="#FAFAFA" stroke-width="0.616236"/>
<path d="M107.159 102.693V93.0877H87.3301C79.0205 92.4942 72.9943 88.4056 71.4365 87.1587C67.5341 91.0608 63.3152 93.215 55.5103 93.688C33.6131 95.015 19.4803 77.8212 19.4803 59.4691C19.4803 36.0358 42.3022 25.2351 54.6098 25.8505C78.6247 27.0511 86.4218 48.6427 86.722 58.9107L96.6281 58.9107C93.9265 24.9916 66.3172 16.3623 51.3079 16.8455C18.8878 20.147 10.4826 46.2614 10.7826 59.4691C11.0829 93.3875 38.0997 104.494 55.5103 102.693C59.7129 102.258 65.7168 101.924 71.4365 97.1218C76.2155 101.624 85.1303 102.537 91.8329 102.693H107.159Z" stroke="#FAFAFA" stroke-width="0.616236"/>
</svg>
