<svg width="206" height="61" viewBox="0 0 206 61" fill="none" xmlns="http://www.w3.org/2000/svg">
<rect x="0.823608" y="0.561035" width="204.891" height="60.1222" rx="10.5611" fill="white"/>
<g clip-path="url(#clip0_19_10)">
<path d="M55.8922 43.292V38.9682H47.0513C43.8549 38.9682 40.3093 35.8498 39.4333 34.3635C36.7778 39.2277 33.3477 38.9682 31.2731 38.9682C24.0809 39.1845 22.0985 33.5637 22.0063 30.7262C22.2276 23.5921 27.9075 21.8987 30.7199 21.9437C37.4693 21.9437 39.3411 27.4384 39.4333 30.1857H43.9901C43.3261 20.2412 35.3302 17.7551 31.2731 17.7551C20.9828 18.0794 17.5729 26.1323 17.7112 30.7262C18.5894 40.995 26.8397 43.5622 31.2731 43.5622C34.8616 43.6973 38.0503 41.4003 39.4333 40.1843C41.9229 42.4812 45.8878 43.2469 47.8702 43.292H55.8922Z" fill="#7E3AF2"/>
<path d="M55.8922 49.8938V45.57H46.7562C42.9277 45.3029 40.1511 43.4625 39.4333 42.9012C37.6353 44.6577 35.6915 45.6274 32.0954 45.8403C22.0064 46.4376 15.4947 38.698 15.4947 30.4371C15.4947 19.889 26.0098 15.0272 31.6805 15.3042C42.7453 15.8446 46.3378 25.5638 46.4761 30.1857H51.0403C49.7955 14.9176 37.0746 11.0332 30.1592 11.2507C15.2217 12.7368 11.349 24.4919 11.4872 30.4371C11.6256 45.705 24.0736 50.7045 32.0954 49.8938C34.0318 49.698 36.798 49.5478 39.4333 47.3859C41.6352 49.4127 45.7428 49.8237 48.8309 49.8938H55.8922Z" fill="#7E3AF2"/>
<path d="M55.8922 43.292V38.9682H47.0513C43.8549 38.9682 40.3093 35.8498 39.4333 34.3635C36.7778 39.2277 33.3477 38.9682 31.2731 38.9682C24.0809 39.1845 22.0985 33.5637 22.0063 30.7262C22.2276 23.5921 27.9075 21.8987 30.7199 21.9437C37.4693 21.9437 39.3411 27.4384 39.4333 30.1857H43.9901C43.3261 20.2412 35.3302 17.7551 31.2731 17.7551C20.9828 18.0794 17.5729 26.1323 17.7112 30.7262C18.5894 40.995 26.8397 43.5622 31.2731 43.5622C34.8616 43.6973 38.0503 41.4003 39.4333 40.1843C41.9229 42.4812 45.8878 43.2469 47.8702 43.292H55.8922Z" stroke="#7E3AF2" stroke-width="0.31808"/>
<path d="M55.8922 49.8938V45.57H46.7562C42.9277 45.3029 40.1511 43.4625 39.4333 42.9012C37.6353 44.6577 35.6915 45.6274 32.0954 45.8403C22.0064 46.4376 15.4947 38.698 15.4947 30.4371C15.4947 19.889 26.0098 15.0272 31.6805 15.3042C42.7453 15.8446 46.3378 25.5638 46.4761 30.1857H51.0403C49.7955 14.9176 37.0746 11.0332 30.1592 11.2507C15.2217 12.7368 11.349 24.4919 11.4872 30.4371C11.6256 45.705 24.0736 50.7045 32.0954 49.8938C34.0318 49.698 36.798 49.5478 39.4333 47.3859C41.6352 49.4127 45.7428 49.8237 48.8309 49.8938H55.8922Z" stroke="#7E3AF2" stroke-width="0.31808"/>
</g>
<path d="M72.3871 40.1221L80.5771 21.9221H83.9051L92.1211 40.1221H88.5851L81.5391 23.7161H82.8911L75.8711 40.1221H72.3871ZM76.1571 35.9101L77.0671 33.2581H86.8951L87.8051 35.9101H76.1571ZM104.506 40.1221L99.488 33.4661L102.14 31.8281L108.328 40.1221H104.506ZM94.548 40.1221V26.2381H97.798V40.1221H94.548ZM96.836 34.5581V31.8541H101.542V34.5581H96.836ZM102.452 33.5701L99.41 33.2061L104.506 26.2381H107.99L102.452 33.5701ZM116.481 40.3041C115.025 40.3041 113.725 40.0007 112.581 39.3941C111.455 38.7701 110.571 37.9207 109.929 36.8461C109.288 35.7714 108.967 34.5494 108.967 33.1801C108.967 31.7934 109.288 30.5714 109.929 29.5141C110.571 28.4394 111.455 27.5987 112.581 26.9921C113.725 26.3854 115.025 26.0821 116.481 26.0821C117.833 26.0821 119.021 26.3594 120.043 26.9141C121.083 27.4514 121.872 28.2487 122.409 29.3061L119.913 30.7621C119.497 30.1034 118.986 29.6181 118.379 29.3061C117.79 28.9941 117.149 28.8381 116.455 28.8381C115.658 28.8381 114.939 29.0114 114.297 29.3581C113.656 29.7047 113.153 30.2074 112.789 30.8661C112.425 31.5074 112.243 32.2787 112.243 33.1801C112.243 34.0814 112.425 34.8614 112.789 35.5201C113.153 36.1614 113.656 36.6554 114.297 37.0021C114.939 37.3487 115.658 37.5221 116.455 37.5221C117.149 37.5221 117.79 37.3661 118.379 37.0541C118.986 36.7421 119.497 36.2567 119.913 35.5981L122.409 37.0541C121.872 38.0941 121.083 38.9001 120.043 39.4721C119.021 40.0267 117.833 40.3041 116.481 40.3041ZM125.271 40.1221V26.2381H128.521V35.3901L136.191 26.2381H139.155V40.1221H135.905V30.9701L128.261 40.1221H125.271ZM149.715 40.3041C148.293 40.3041 147.028 40.0007 145.919 39.3941C144.809 38.7701 143.934 37.9207 143.293 36.8461C142.651 35.7714 142.331 34.5494 142.331 33.1801C142.331 31.7934 142.651 30.5714 143.293 29.5141C143.934 28.4394 144.809 27.5987 145.919 26.9921C147.028 26.3854 148.293 26.0821 149.715 26.0821C151.153 26.0821 152.427 26.3854 153.537 26.9921C154.663 27.5987 155.539 28.4307 156.163 29.4881C156.804 30.5454 157.125 31.7761 157.125 33.1801C157.125 34.5494 156.804 35.7714 156.163 36.8461C155.539 37.9207 154.663 38.7701 153.537 39.3941C152.427 40.0007 151.153 40.3041 149.715 40.3041ZM149.715 37.5221C150.512 37.5221 151.223 37.3487 151.847 37.0021C152.471 36.6554 152.956 36.1527 153.303 35.4941C153.667 34.8354 153.849 34.0641 153.849 33.1801C153.849 32.2787 153.667 31.5074 153.303 30.8661C152.956 30.2074 152.471 29.7047 151.847 29.3581C151.223 29.0114 150.521 28.8381 149.741 28.8381C148.943 28.8381 148.233 29.0114 147.609 29.3581C147.002 29.7047 146.517 30.2074 146.153 30.8661C145.789 31.5074 145.607 32.2787 145.607 33.1801C145.607 34.0641 145.789 34.8354 146.153 35.4941C146.517 36.1527 147.002 36.6554 147.609 37.0021C148.233 37.3487 148.935 37.5221 149.715 37.5221ZM160.335 40.1221V26.2381H163.741L169.331 36.0921H167.979L173.855 26.2381H176.897L176.923 40.1221H173.985V29.7221L174.505 30.0601L169.305 38.6661H167.901L162.675 29.8261L163.299 29.6701V40.1221H160.335ZM189.706 40.1221V37.3141L189.524 36.7161V31.8021C189.524 30.8487 189.238 30.1121 188.666 29.5921C188.094 29.0547 187.228 28.7861 186.066 28.7861C185.286 28.7861 184.515 28.9074 183.752 29.1501C183.007 29.3927 182.374 29.7307 181.854 30.1641L180.58 27.7981C181.326 27.2261 182.21 26.8014 183.232 26.5241C184.272 26.2294 185.347 26.0821 186.456 26.0821C188.467 26.0821 190.018 26.5674 191.11 27.5381C192.22 28.4914 192.774 29.9734 192.774 31.9841V40.1221H189.706ZM185.338 40.3041C184.298 40.3041 183.388 40.1307 182.608 39.7841C181.828 39.4201 181.222 38.9261 180.788 38.3021C180.372 37.6607 180.164 36.9414 180.164 36.1441C180.164 35.3641 180.346 34.6621 180.71 34.0381C181.092 33.4141 181.707 32.9201 182.556 32.5561C183.406 32.1921 184.532 32.0101 185.936 32.0101H189.966V34.1681H186.17C185.061 34.1681 184.316 34.3501 183.934 34.7141C183.553 35.0607 183.362 35.4941 183.362 36.0141C183.362 36.6034 183.596 37.0714 184.064 37.4181C184.532 37.7647 185.182 37.9381 186.014 37.9381C186.812 37.9381 187.522 37.7561 188.146 37.3921C188.788 37.0281 189.247 36.4907 189.524 35.7801L190.07 37.7301C189.758 38.5447 189.195 39.1774 188.38 39.6281C187.583 40.0787 186.569 40.3041 185.338 40.3041Z" fill="#111928"/>
<defs>
<clipPath id="clip0_19_10">
<rect width="44.5635" height="38.8917" fill="white" transform="translate(11.3847 11.1221)"/>
</clipPath>
</defs>
</svg>
