<svg width="231" height="192" viewBox="0 0 231 192" fill="none" xmlns="http://www.w3.org/2000/svg">
<path d="M231 191.587V170.155H183.477C163.562 168.831 149.12 159.708 145.386 156.926C136.033 165.633 125.922 170.439 107.216 171.495C54.7358 174.455 20.864 136.092 20.864 95.1447C20.864 42.86 75.5605 18.7613 105.058 20.1343C162.614 22.8132 181.301 70.9886 182.02 93.8986H205.762C199.287 18.2179 133.116 -1.03595 97.1444 0.0422308C19.4438 7.40851 -0.700655 65.6755 0.0184031 95.1447C0.738244 170.824 65.4887 195.605 107.216 191.587C117.288 190.616 131.678 189.872 145.386 179.156C156.839 189.202 178.206 191.239 194.269 191.587H231Z" fill="white" fill-opacity="0.16"/>
<path d="M230.999 158.863V137.431H185.012C168.385 137.431 149.941 121.974 145.385 114.606C131.571 138.717 113.729 137.431 102.938 137.431C65.5261 138.503 55.2142 110.642 54.7346 96.5769C55.8857 61.2151 85.4309 52.821 100.06 53.0441C135.169 53.0441 144.905 80.2803 145.385 93.8978H169.088C165.634 44.6056 124.041 32.2825 102.938 32.2825C49.4106 33.8898 31.673 73.8062 32.3925 96.5769C36.9607 147.477 79.8762 160.202 102.938 160.202C121.604 160.872 138.191 149.486 145.385 143.459C158.335 154.844 178.959 158.639 189.271 158.863H230.999Z" fill="white" fill-opacity="0.16"/>
</svg>
