<svg width="164" height="39" viewBox="0 0 164 39" fill="none" xmlns="http://www.w3.org/2000/svg">
<g clip-path="url(#clip0_106_986)">
<path d="M32.9585 28.9879V25.7638H26.4118C24.0448 25.7638 21.4192 23.4385 20.7705 22.3303C18.804 25.9573 16.264 25.7638 14.7277 25.7638C9.40177 25.9251 7.93376 21.7338 7.86549 19.618C8.02936 14.2985 12.2354 13.0357 14.318 13.0693C19.3161 13.0693 20.7022 17.1665 20.7705 19.215H24.1448C23.6532 11.7998 17.732 9.94604 14.7277 9.94604C7.10757 10.1878 4.58244 16.1926 4.68486 19.618C5.3352 27.2751 11.4447 29.1893 14.7277 29.1893C17.3851 29.2901 19.7463 27.5773 20.7705 26.6706C22.6141 28.3833 25.5502 28.9543 27.0181 28.9879H32.9585Z" fill="#7E3AF2"/>
<path d="M32.9585 33.9105V30.6865H26.1932C23.3581 30.4873 21.302 29.115 20.7705 28.6964C19.439 30.0062 17.9996 30.7292 15.3366 30.888C7.8655 31.3334 3.04351 25.5623 3.04351 19.4025C3.04351 11.5372 10.8301 7.91192 15.0294 8.11846C23.2231 8.52146 25.8834 15.7686 25.9858 19.215H29.3656C28.4438 7.83018 19.0238 4.93376 13.9028 5.09595C2.84133 6.20408 -0.0264423 14.9693 0.0759231 19.4025C0.1784 30.7872 9.3963 34.515 15.3366 33.9105C16.7705 33.7646 18.819 33.6525 20.7705 32.0405C22.401 33.5518 25.4427 33.8583 27.7296 33.9105H32.9585Z" fill="#7E3AF2"/>
<path d="M32.9585 28.9879V25.7638H26.4118C24.0448 25.7638 21.4192 23.4385 20.7705 22.3303C18.804 25.9573 16.264 25.7638 14.7277 25.7638C9.40177 25.9251 7.93376 21.7338 7.86549 19.618C8.02936 14.2985 12.2354 13.0357 14.318 13.0693C19.3161 13.0693 20.7022 17.1665 20.7705 19.215H24.1448C23.6532 11.7998 17.732 9.94604 14.7277 9.94604C7.10757 10.1878 4.58244 16.1926 4.68486 19.618C5.3352 27.2751 11.4447 29.1893 14.7277 29.1893C17.3851 29.2901 19.7463 27.5773 20.7705 26.6706C22.6141 28.3833 25.5502 28.9543 27.0181 28.9879H32.9585Z" stroke="#7E3AF2" stroke-width="0.31808"/>
<path d="M32.9585 33.9105V30.6865H26.1932C23.3581 30.4873 21.302 29.115 20.7705 28.6964C19.439 30.0062 17.9996 30.7292 15.3366 30.888C7.8655 31.3334 3.04351 25.5623 3.04351 19.4025C3.04351 11.5372 10.8301 7.91192 15.0294 8.11846C23.2231 8.52146 25.8834 15.7686 25.9858 19.215H29.3656C28.4438 7.83018 19.0238 4.93376 13.9028 5.09595C2.84133 6.20408 -0.0264423 14.9693 0.0759231 19.4025C0.1784 30.7872 9.3963 34.515 15.3366 33.9105C16.7705 33.7646 18.819 33.6525 20.7705 32.0405C22.401 33.5518 25.4427 33.8583 27.7296 33.9105H32.9585Z" stroke="#7E3AF2" stroke-width="0.31808"/>
<path d="M32.9585 33.9105V30.6865H26.1932C23.3581 30.4873 21.302 29.115 20.7705 28.6964C19.439 30.0062 17.9996 30.7292 15.3366 30.888C7.8655 31.3334 3.04351 25.5623 3.04351 19.4025C3.04351 11.5372 10.8301 7.91192 15.0294 8.11846C23.2231 8.52146 25.8834 15.7686 25.9858 19.215H29.3656C28.4438 7.83018 19.0238 4.93376 13.9028 5.09595C2.84133 6.20408 -0.0264423 14.9693 0.0759231 19.4025C0.1784 30.7872 9.3963 34.515 15.3366 33.9105C16.7705 33.7646 18.819 33.6525 20.7705 32.0405C22.401 33.5518 25.4427 33.8583 27.7296 33.9105H32.9585Z" stroke="#7E3AF2" stroke-width="0.31808"/>
</g>
<path d="M41.234 29L49.424 10.8H52.752L60.968 29H57.432L50.386 12.594H51.738L44.718 29H41.234ZM45.004 24.788L45.914 22.136H55.742L56.652 24.788H45.004ZM73.3529 29L68.3349 22.344L70.9869 20.706L77.1749 29H73.3529ZM63.3949 29V15.116H66.6449V29H63.3949ZM65.6829 23.436V20.732H70.3889V23.436H65.6829ZM71.2989 22.448L68.2569 22.084L73.3529 15.116H76.8369L71.2989 22.448ZM85.3282 29.182C83.8722 29.182 82.5722 28.8787 81.4282 28.272C80.3015 27.648 79.4175 26.7987 78.7762 25.724C78.1348 24.6493 77.8142 23.4273 77.8142 22.058C77.8142 20.6713 78.1348 19.4493 78.7762 18.392C79.4175 17.3173 80.3015 16.4767 81.4282 15.87C82.5722 15.2633 83.8722 14.96 85.3282 14.96C86.6802 14.96 87.8675 15.2373 88.8902 15.792C89.9302 16.3293 90.7188 17.1267 91.2562 18.184L88.7602 19.64C88.3442 18.9813 87.8328 18.496 87.2262 18.184C86.6368 17.872 85.9955 17.716 85.3022 17.716C84.5048 17.716 83.7855 17.8893 83.1442 18.236C82.5028 18.5827 82.0002 19.0853 81.6362 19.744C81.2722 20.3853 81.0902 21.1567 81.0902 22.058C81.0902 22.9593 81.2722 23.7393 81.6362 24.398C82.0002 25.0393 82.5028 25.5333 83.1442 25.88C83.7855 26.2267 84.5048 26.4 85.3022 26.4C85.9955 26.4 86.6368 26.244 87.2262 25.932C87.8328 25.62 88.3442 25.1347 88.7602 24.476L91.2562 25.932C90.7188 26.972 89.9302 27.778 88.8902 28.35C87.8675 28.9047 86.6802 29.182 85.3282 29.182ZM94.1176 29V15.116H97.3676V24.268L105.038 15.116H108.002V29H104.752V19.848L97.1076 29H94.1176ZM118.561 29.182C117.14 29.182 115.875 28.8787 114.765 28.272C113.656 27.648 112.781 26.7987 112.139 25.724C111.498 24.6493 111.177 23.4273 111.177 22.058C111.177 20.6713 111.498 19.4493 112.139 18.392C112.781 17.3173 113.656 16.4767 114.765 15.87C115.875 15.2633 117.14 14.96 118.561 14.96C120 14.96 121.274 15.2633 122.383 15.87C123.51 16.4767 124.385 17.3087 125.009 18.366C125.651 19.4233 125.971 20.654 125.971 22.058C125.971 23.4273 125.651 24.6493 125.009 25.724C124.385 26.7987 123.51 27.648 122.383 28.272C121.274 28.8787 120 29.182 118.561 29.182ZM118.561 26.4C119.359 26.4 120.069 26.2267 120.693 25.88C121.317 25.5333 121.803 25.0307 122.149 24.372C122.513 23.7133 122.695 22.942 122.695 22.058C122.695 21.1567 122.513 20.3853 122.149 19.744C121.803 19.0853 121.317 18.5827 120.693 18.236C120.069 17.8893 119.367 17.716 118.587 17.716C117.79 17.716 117.079 17.8893 116.455 18.236C115.849 18.5827 115.363 19.0853 114.999 19.744C114.635 20.3853 114.453 21.1567 114.453 22.058C114.453 22.942 114.635 23.7133 114.999 24.372C115.363 25.0307 115.849 25.5333 116.455 25.88C117.079 26.2267 117.781 26.4 118.561 26.4ZM129.182 29V15.116H132.588L138.178 24.97H136.826L142.702 15.116H145.744L145.77 29H142.832V18.6L143.352 18.938L138.152 27.544H136.748L131.522 18.704L132.146 18.548V29H129.182ZM158.553 29V26.192L158.371 25.594V20.68C158.371 19.7267 158.085 18.99 157.513 18.47C156.941 17.9327 156.075 17.664 154.913 17.664C154.133 17.664 153.362 17.7853 152.599 18.028C151.854 18.2707 151.221 18.6087 150.701 19.042L149.427 16.676C150.173 16.104 151.057 15.6793 152.079 15.402C153.119 15.1073 154.194 14.96 155.303 14.96C157.314 14.96 158.865 15.4453 159.957 16.416C161.067 17.3693 161.621 18.8513 161.621 20.862V29H158.553ZM154.185 29.182C153.145 29.182 152.235 29.0087 151.455 28.662C150.675 28.298 150.069 27.804 149.635 27.18C149.219 26.5387 149.011 25.8193 149.011 25.022C149.011 24.242 149.193 23.54 149.557 22.916C149.939 22.292 150.554 21.798 151.403 21.434C152.253 21.07 153.379 20.888 154.783 20.888H158.813V23.046H155.017C153.908 23.046 153.163 23.228 152.781 23.592C152.4 23.9387 152.209 24.372 152.209 24.892C152.209 25.4813 152.443 25.9493 152.911 26.296C153.379 26.6427 154.029 26.816 154.861 26.816C155.659 26.816 156.369 26.634 156.993 26.27C157.635 25.906 158.094 25.3687 158.371 24.658L158.917 26.608C158.605 27.4227 158.042 28.0553 157.227 28.506C156.43 28.9567 155.416 29.182 154.185 29.182Z" fill="#111928"/>
<defs>
<clipPath id="clip0_106_986">
<rect width="33" height="29" fill="white" transform="translate(0 5)"/>
</clipPath>
</defs>
</svg>
