<svg width="20" height="20" viewBox="0 0 20 20" fill="none" xmlns="http://www.w3.org/2000/svg">
<path fill-rule="evenodd" clip-rule="evenodd" d="M4.99967 8.3335C4.08301 8.3335 3.33301 9.0835 3.33301 10.0002C3.33301 10.9168 4.08301 11.6668 4.99967 11.6668C5.91634 11.6668 6.66634 10.9168 6.66634 10.0002C6.66634 9.0835 5.91634 8.3335 4.99967 8.3335ZM14.9997 8.3335C14.083 8.3335 13.333 9.0835 13.333 10.0002C13.333 10.9168 14.083 11.6668 14.9997 11.6668C15.9163 11.6668 16.6663 10.9168 16.6663 10.0002C16.6663 9.0835 15.9163 8.3335 14.9997 8.3335ZM9.99967 8.3335C9.08301 8.3335 8.33301 9.0835 8.33301 10.0002C8.33301 10.9168 9.08301 11.6668 9.99967 11.6668C10.9163 11.6668 11.6663 10.9168 11.6663 10.0002C11.6663 9.0835 10.9163 8.3335 9.99967 8.3335Z" fill="#6C757D"/>
</svg>
