<svg width="28" height="27" viewBox="0 0 28 27" fill="none" xmlns="http://www.w3.org/2000/svg">
<path d="M13.9753 23.5233C19.4435 23.5233 23.8763 19.0904 23.8763 13.6222C23.8763 8.15404 19.4435 3.72119 13.9753 3.72119C8.50707 3.72119 4.07422 8.15404 4.07422 13.6222C4.07422 19.0904 8.50707 23.5233 13.9753 23.5233Z" stroke="#A38FFD" stroke-width="2.20023" stroke-linecap="round" stroke-linejoin="round"/>
<path d="M13.9752 14.7223C15.7979 14.7223 17.2755 13.2447 17.2755 11.4219C17.2755 9.5992 15.7979 8.12158 13.9752 8.12158C12.1524 8.12158 10.6748 9.5992 10.6748 11.4219C10.6748 13.2447 12.1524 14.7223 13.9752 14.7223Z" stroke="#A38FFD" stroke-width="2.20023" stroke-linecap="round" stroke-linejoin="round"/>
<path d="M7.55908 21.1567C7.83137 20.2504 8.38853 19.4561 9.14792 18.8915C9.90731 18.3269 10.8285 18.0222 11.7747 18.0225H16.1752C17.1227 18.0221 18.045 18.3276 18.8049 18.8935C19.5648 19.4594 20.1218 20.2555 20.393 21.1633" stroke="#A38FFD" stroke-width="2.20023" stroke-linecap="round" stroke-linejoin="round"/>
</svg>
