<svg width="89" height="89" viewBox="0 0 89 89" fill="none" xmlns="http://www.w3.org/2000/svg">
<path d="M88.1001 44.2749C88.1001 68.5754 68.4006 88.2749 44.1001 88.2749C19.7996 88.2749 0.100098 68.5754 0.100098 44.2749C0.100098 19.9744 19.7996 0.274902 44.1001 0.274902C68.4006 0.274902 88.1001 19.9744 88.1001 44.2749Z" fill="#E9D5FF"/>
<circle cx="44.1001" cy="44.2749" r="33" fill="#A38FFD"/>
<path d="M31.1144 58.8311H56.4878C57.6556 58.8311 58.6022 59.7778 58.6022 60.9456C58.6022 62.016 57.8068 62.9007 56.7747 63.0407L56.4878 63.06H31.1144C29.9467 63.06 29 62.1133 29 60.9456C29 59.8751 29.7955 58.9904 30.8275 58.8504L31.1144 58.8311ZM43.5142 25.0193L43.8011 25C44.8716 25 45.7562 25.7955 45.8963 26.8275L45.9156 27.1144V48.7889L52.2736 42.4347C53.0242 41.684 54.1989 41.6158 55.0267 42.23L55.2638 42.4347C56.0145 43.1854 56.0828 44.36 55.4686 45.1878L55.2638 45.425L45.2963 55.3925C44.5456 56.1432 43.3709 56.2115 42.5431 55.5973L42.306 55.3925L32.3384 45.425C31.5126 44.5992 31.5126 43.2604 32.3384 42.4347C33.0891 41.684 34.2637 41.6158 35.0915 42.23L35.3287 42.4347L41.6867 48.7945V27.1144C41.6867 26.044 42.4821 25.1593 43.5142 25.0193Z" fill="white"/>
</svg>
